<mxfile host="drawio-plugin" modified="2021-11-10T11:37:01.740Z" agent="5.0 (Windows NT 6.2; Win64; x64) AppleWebKit/537.36 (KHTML, like Gecko) Chrome/84.0.4147.105 Safari/537.36" etag="IBuA0E2md_iyDjwKXuAr" version="14.7.4" type="embed" pages="8"><diagram id="48QfPSKIX_U6BVccSqgQ" name="homepage"><mxGraphModel dx="445" dy="1224" grid="1" gridSize="10" guides="1" tooltips="1" connect="1" arrows="1" fold="1" page="1" pageScale="1" pageWidth="850" pageHeight="1100" background="none" math="0" shadow="0"><root><mxCell id="0"/><mxCell id="1" parent="0"/><mxCell id="4" value="upbar" style="rounded=0;whiteSpace=wrap;html=1;" parent="1" vertex="1"><mxGeometry x="140" y="-10" width="550" height="110" as="geometry"/></mxCell><mxCell id="5" value="logo" style="ellipse;whiteSpace=wrap;html=1;aspect=fixed;" parent="1" vertex="1"><mxGeometry x="140" y="30" width="50" height="50" as="geometry"/></mxCell><mxCell id="7" value="register" style="rounded=0;whiteSpace=wrap;html=1;fillColor=#dae8fc;strokeColor=#6c8ebf;" parent="1" vertex="1"><mxGeometry x="620" y="60" width="50" height="25" as="geometry"/></mxCell><mxCell id="8" value="login" style="rounded=0;whiteSpace=wrap;html=1;fillColor=#dae8fc;strokeColor=#6c8ebf;" parent="1" vertex="1"><mxGeometry x="570" y="60" width="50" height="25" as="geometry"/></mxCell><mxCell id="9" value="home" style="whiteSpace=wrap;html=1;aspect=fixed;fillColor=#dae8fc;strokeColor=#6c8ebf;fontColor=#000000;" parent="1" vertex="1"><mxGeometry x="210" y="30" width="45" height="45" as="geometry"/></mxCell><mxCell id="10" value="contact" style="whiteSpace=wrap;html=1;aspect=fixed;fillColor=#dae8fc;strokeColor=#6c8ebf;fontColor=#000000;" parent="1" vertex="1"><mxGeometry x="500" y="32.5" width="40" height="40" as="geometry"/></mxCell><mxCell id="11" value="about us" style="whiteSpace=wrap;html=1;aspect=fixed;fillColor=#dae8fc;strokeColor=#6c8ebf;fontColor=#737373;" parent="1" vertex="1"><mxGeometry x="310" y="30" width="45" height="45" as="geometry"/></mxCell><mxCell id="12" value="content" style="whiteSpace=wrap;html=1;aspect=fixed;" parent="1" vertex="1"><mxGeometry x="210" y="120" width="430" height="430" as="geometry"/></mxCell><mxCell id="14" value="navigation button" style="rounded=0;whiteSpace=wrap;html=1;fillColor=#dae8fc;strokeColor=#6c8ebf;" parent="1" vertex="1"><mxGeometry x="730" y="300" width="80" height="40" as="geometry"/></mxCell><mxCell id="15" value="submit button" style="rounded=0;whiteSpace=wrap;html=1;fillColor=#e1d5e7;strokeColor=#9673a6;" parent="1" vertex="1"><mxGeometry x="730" y="340" width="80" height="40" as="geometry"/></mxCell><mxCell id="16" value="input" style="rounded=0;whiteSpace=wrap;html=1;fillColor=#fff2cc;strokeColor=#d6b656;" parent="1" vertex="1"><mxGeometry x="730" y="380" width="80" height="40" as="geometry"/></mxCell><mxCell id="17" value="complex input" style="rounded=0;whiteSpace=wrap;html=1;fillColor=#ffe6cc;strokeColor=#d79b00;" parent="1" vertex="1"><mxGeometry x="730" y="420" width="80" height="40" as="geometry"/></mxCell><mxCell id="18" value="legend" style="rounded=0;whiteSpace=wrap;html=1;" parent="1" vertex="1"><mxGeometry x="730" y="260" width="80" height="40" as="geometry"/></mxCell></root></mxGraphModel></diagram><diagram id="8_2chwJkqsUIfD7A2F27" name="register.page"><mxGraphModel dx="824" dy="1503" grid="1" gridSize="10" guides="1" tooltips="1" connect="1" arrows="1" fold="1" page="1" pageScale="1" pageWidth="850" pageHeight="1100" math="0" shadow="0"><root><mxCell id="qetR7_zGuVQxAj0pGvBH-0"/><mxCell id="qetR7_zGuVQxAj0pGvBH-1" parent="qetR7_zGuVQxAj0pGvBH-0"/><mxCell id="qetR7_zGuVQxAj0pGvBH-2" value="navigation button" style="rounded=0;whiteSpace=wrap;html=1;fillColor=#dae8fc;strokeColor=#6c8ebf;" parent="qetR7_zGuVQxAj0pGvBH-1" vertex="1"><mxGeometry x="10" y="-1040" width="80" height="40" as="geometry"/></mxCell><mxCell id="qetR7_zGuVQxAj0pGvBH-3" value="submit button" style="rounded=0;whiteSpace=wrap;html=1;fillColor=#e1d5e7;strokeColor=#9673a6;" parent="qetR7_zGuVQxAj0pGvBH-1" vertex="1"><mxGeometry x="10" y="-1000" width="80" height="40" as="geometry"/></mxCell><mxCell id="qetR7_zGuVQxAj0pGvBH-4" value="input" style="rounded=0;whiteSpace=wrap;html=1;fillColor=#fff2cc;strokeColor=#d6b656;" parent="qetR7_zGuVQxAj0pGvBH-1" vertex="1"><mxGeometry x="10" y="-960" width="80" height="40" as="geometry"/></mxCell><mxCell id="qetR7_zGuVQxAj0pGvBH-5" value="complex input" style="rounded=0;whiteSpace=wrap;html=1;fillColor=#ffe6cc;strokeColor=#d79b00;" parent="qetR7_zGuVQxAj0pGvBH-1" vertex="1"><mxGeometry x="10" y="-920" width="80" height="40" as="geometry"/></mxCell><mxCell id="qetR7_zGuVQxAj0pGvBH-6" value="legend" style="rounded=0;whiteSpace=wrap;html=1;" parent="qetR7_zGuVQxAj0pGvBH-1" vertex="1"><mxGeometry x="10" y="-1080" width="80" height="40" as="geometry"/></mxCell><mxCell id="qetR7_zGuVQxAj0pGvBH-7" value="" style="rounded=0;whiteSpace=wrap;html=1;fillColor=#fff2cc;strokeColor=#d6b656;" parent="qetR7_zGuVQxAj0pGvBH-1" vertex="1"><mxGeometry x="220" y="-840" width="240" height="60" as="geometry"/></mxCell><mxCell id="qetR7_zGuVQxAj0pGvBH-8" value="" style="rounded=0;whiteSpace=wrap;html=1;fillColor=#fff2cc;strokeColor=#d6b656;" parent="qetR7_zGuVQxAj0pGvBH-1" vertex="1"><mxGeometry x="220" y="-740" width="240" height="60" as="geometry"/></mxCell><mxCell id="yITbdPwe31zWzQW3iBT5-0" value="upbar" style="rounded=0;whiteSpace=wrap;html=1;" parent="qetR7_zGuVQxAj0pGvBH-1" vertex="1"><mxGeometry x="110" y="-1042.5" width="600" height="92.5" as="geometry"/></mxCell><mxCell id="yITbdPwe31zWzQW3iBT5-1" value="logo" style="ellipse;whiteSpace=wrap;html=1;aspect=fixed;" parent="qetR7_zGuVQxAj0pGvBH-1" vertex="1"><mxGeometry x="160" y="-1021.25" width="50" height="50" as="geometry"/></mxCell><mxCell id="yITbdPwe31zWzQW3iBT5-4" value="home" style="whiteSpace=wrap;html=1;aspect=fixed;fillColor=#dae8fc;strokeColor=#6c8ebf;" parent="qetR7_zGuVQxAj0pGvBH-1" vertex="1"><mxGeometry x="260" y="-1010" width="45" height="45" as="geometry"/></mxCell><mxCell id="yITbdPwe31zWzQW3iBT5-5" value="contact" style="whiteSpace=wrap;html=1;aspect=fixed;fillColor=#dae8fc;strokeColor=#6c8ebf;" parent="qetR7_zGuVQxAj0pGvBH-1" vertex="1"><mxGeometry x="550" y="-1007.5" width="40" height="40" as="geometry"/></mxCell><mxCell id="yITbdPwe31zWzQW3iBT5-6" value="about us" style="whiteSpace=wrap;html=1;aspect=fixed;fillColor=#dae8fc;strokeColor=#6c8ebf;" parent="qetR7_zGuVQxAj0pGvBH-1" vertex="1"><mxGeometry x="340" y="-1007.5" width="45" height="45" as="geometry"/></mxCell><mxCell id="yITbdPwe31zWzQW3iBT5-19" value="password" style="rounded=0;whiteSpace=wrap;html=1;" parent="qetR7_zGuVQxAj0pGvBH-1" vertex="1"><mxGeometry x="222.5" y="-770" width="120" height="20" as="geometry"/></mxCell><mxCell id="yITbdPwe31zWzQW3iBT5-20" value="submit" style="rounded=0;whiteSpace=wrap;html=1;fillColor=#e1d5e7;strokeColor=#9673a6;" parent="qetR7_zGuVQxAj0pGvBH-1" vertex="1"><mxGeometry x="260" y="-510" width="120" height="60" as="geometry"/></mxCell><mxCell id="yITbdPwe31zWzQW3iBT5-21" value="" style="rounded=0;whiteSpace=wrap;html=1;fillColor=#fff2cc;strokeColor=#d6b656;" parent="qetR7_zGuVQxAj0pGvBH-1" vertex="1"><mxGeometry x="222.5" y="-640" width="240" height="60" as="geometry"/></mxCell><mxCell id="yITbdPwe31zWzQW3iBT5-22" value="repeat password" style="rounded=0;whiteSpace=wrap;html=1;" parent="qetR7_zGuVQxAj0pGvBH-1" vertex="1"><mxGeometry x="230" y="-670" width="120" height="20" as="geometry"/></mxCell><mxCell id="yITbdPwe31zWzQW3iBT5-23" value="username:" style="rounded=0;whiteSpace=wrap;html=1;" parent="qetR7_zGuVQxAj0pGvBH-1" vertex="1"><mxGeometry x="230" y="-870" width="120" height="20" as="geometry"/></mxCell><mxCell id="yITbdPwe31zWzQW3iBT5-24" value="checkbox" style="rounded=0;whiteSpace=wrap;html=1;" parent="qetR7_zGuVQxAj0pGvBH-1" vertex="1"><mxGeometry x="240" y="-550" width="120" height="20" as="geometry"/></mxCell></root></mxGraphModel></diagram><diagram id="QBdJOiBELqfhsQn6X_9K" name="login.page"><mxGraphModel dx="824" dy="2603" grid="1" gridSize="10" guides="1" tooltips="1" connect="1" arrows="1" fold="1" page="1" pageScale="1" pageWidth="850" pageHeight="1100" math="0" shadow="0"><root><mxCell id="WaKozrHZsJp7wlysmKln-0"/><mxCell id="WaKozrHZsJp7wlysmKln-1" parent="WaKozrHZsJp7wlysmKln-0"/><mxCell id="5mCoRqvHG90-bwskRwjX-0" value="upbar" style="rounded=0;whiteSpace=wrap;html=1;" parent="WaKozrHZsJp7wlysmKln-1" vertex="1"><mxGeometry x="120" y="-1472.5" width="600" height="92.5" as="geometry"/></mxCell><mxCell id="5mCoRqvHG90-bwskRwjX-1" value="logo" style="ellipse;whiteSpace=wrap;html=1;aspect=fixed;" parent="WaKozrHZsJp7wlysmKln-1" vertex="1"><mxGeometry x="170" y="-1451.25" width="50" height="50" as="geometry"/></mxCell><mxCell id="5mCoRqvHG90-bwskRwjX-2" value="home" style="whiteSpace=wrap;html=1;aspect=fixed;fillColor=#dae8fc;strokeColor=#6c8ebf;" parent="WaKozrHZsJp7wlysmKln-1" vertex="1"><mxGeometry x="270" y="-1440" width="45" height="45" as="geometry"/></mxCell><mxCell id="5mCoRqvHG90-bwskRwjX-3" value="contact" style="whiteSpace=wrap;html=1;aspect=fixed;fillColor=#dae8fc;strokeColor=#6c8ebf;" parent="WaKozrHZsJp7wlysmKln-1" vertex="1"><mxGeometry x="560" y="-1437.5" width="40" height="40" as="geometry"/></mxCell><mxCell id="5mCoRqvHG90-bwskRwjX-4" value="about us" style="whiteSpace=wrap;html=1;aspect=fixed;fillColor=#dae8fc;strokeColor=#6c8ebf;" parent="WaKozrHZsJp7wlysmKln-1" vertex="1"><mxGeometry x="350" y="-1437.5" width="45" height="45" as="geometry"/></mxCell><mxCell id="pm16Jfxr7ePxjhJPZO0A-0" value="navigation button" style="rounded=0;whiteSpace=wrap;html=1;fillColor=#dae8fc;strokeColor=#6c8ebf;" parent="WaKozrHZsJp7wlysmKln-1" vertex="1"><mxGeometry x="20" y="-1460" width="80" height="40" as="geometry"/></mxCell><mxCell id="pm16Jfxr7ePxjhJPZO0A-1" value="submit button" style="rounded=0;whiteSpace=wrap;html=1;fillColor=#e1d5e7;strokeColor=#9673a6;" parent="WaKozrHZsJp7wlysmKln-1" vertex="1"><mxGeometry x="20" y="-1420" width="80" height="40" as="geometry"/></mxCell><mxCell id="pm16Jfxr7ePxjhJPZO0A-2" value="input" style="rounded=0;whiteSpace=wrap;html=1;fillColor=#fff2cc;strokeColor=#d6b656;" parent="WaKozrHZsJp7wlysmKln-1" vertex="1"><mxGeometry x="20" y="-1380" width="80" height="40" as="geometry"/></mxCell><mxCell id="pm16Jfxr7ePxjhJPZO0A-3" value="complex input" style="rounded=0;whiteSpace=wrap;html=1;fillColor=#ffe6cc;strokeColor=#d79b00;" parent="WaKozrHZsJp7wlysmKln-1" vertex="1"><mxGeometry x="20" y="-1340" width="80" height="40" as="geometry"/></mxCell><mxCell id="pm16Jfxr7ePxjhJPZO0A-4" value="legend" style="rounded=0;whiteSpace=wrap;html=1;" parent="WaKozrHZsJp7wlysmKln-1" vertex="1"><mxGeometry x="20" y="-1500" width="80" height="40" as="geometry"/></mxCell><mxCell id="LqY9G_POl2lhwehCe9fX-0" value="" style="rounded=0;whiteSpace=wrap;html=1;fillColor=#fff2cc;strokeColor=#d6b656;" parent="WaKozrHZsJp7wlysmKln-1" vertex="1"><mxGeometry x="290" y="-1260" width="240" height="60" as="geometry"/></mxCell><mxCell id="LqY9G_POl2lhwehCe9fX-1" value="" style="rounded=0;whiteSpace=wrap;html=1;fillColor=#fff2cc;strokeColor=#d6b656;" parent="WaKozrHZsJp7wlysmKln-1" vertex="1"><mxGeometry x="290" y="-1160" width="240" height="60" as="geometry"/></mxCell><mxCell id="LqY9G_POl2lhwehCe9fX-2" value="password" style="rounded=0;whiteSpace=wrap;html=1;" parent="WaKozrHZsJp7wlysmKln-1" vertex="1"><mxGeometry x="292.5" y="-1190" width="120" height="20" as="geometry"/></mxCell><mxCell id="LqY9G_POl2lhwehCe9fX-3" value="username:" style="rounded=0;whiteSpace=wrap;html=1;" parent="WaKozrHZsJp7wlysmKln-1" vertex="1"><mxGeometry x="300" y="-1290" width="120" height="20" as="geometry"/></mxCell><mxCell id="taQAd07q4ndl6m8-76CM-0" value="submit" style="rounded=0;whiteSpace=wrap;html=1;fillColor=#e1d5e7;strokeColor=#9673a6;" parent="WaKozrHZsJp7wlysmKln-1" vertex="1"><mxGeometry x="340" y="-1050" width="120" height="60" as="geometry"/></mxCell><mxCell id="taQAd07q4ndl6m8-76CM-1" value="wrong password error" style="rounded=0;whiteSpace=wrap;html=1;dashed=1;" parent="WaKozrHZsJp7wlysmKln-1" vertex="1"><mxGeometry x="300" y="-1080" width="120" height="20" as="geometry"/></mxCell></root></mxGraphModel></diagram><diagram id="UlFJ9r-9AALaBPoCcBKO" name="after.login"><mxGraphModel dx="445" dy="3424" grid="1" gridSize="10" guides="1" tooltips="1" connect="1" arrows="1" fold="1" page="1" pageScale="1" pageWidth="850" pageHeight="1100" math="0" shadow="0"><root><mxCell id="t5h4ntlKS3oG1EiMdZO0-0"/><mxCell id="t5h4ntlKS3oG1EiMdZO0-1" parent="t5h4ntlKS3oG1EiMdZO0-0"/><mxCell id="8mgCA9mocodFclwpFADu-0" value="upbar" style="rounded=0;whiteSpace=wrap;html=1;" parent="t5h4ntlKS3oG1EiMdZO0-1" vertex="1"><mxGeometry x="100" y="-3250" width="600" height="92.5" as="geometry"/></mxCell><mxCell id="8mgCA9mocodFclwpFADu-1" value="logo" style="ellipse;whiteSpace=wrap;html=1;aspect=fixed;" parent="t5h4ntlKS3oG1EiMdZO0-1" vertex="1"><mxGeometry x="150" y="-3228.75" width="50" height="50" as="geometry"/></mxCell><mxCell id="8mgCA9mocodFclwpFADu-2" value="home" style="whiteSpace=wrap;html=1;aspect=fixed;fillColor=#dae8fc;strokeColor=#6c8ebf;fontColor=#000000;" parent="t5h4ntlKS3oG1EiMdZO0-1" vertex="1"><mxGeometry x="250" y="-3217.5" width="45" height="45" as="geometry"/></mxCell><mxCell id="8mgCA9mocodFclwpFADu-3" value="contact" style="whiteSpace=wrap;html=1;aspect=fixed;fillColor=#dae8fc;strokeColor=#6c8ebf;fontColor=#000000;" parent="t5h4ntlKS3oG1EiMdZO0-1" vertex="1"><mxGeometry x="460" y="-3212.5" width="40" height="40" as="geometry"/></mxCell><mxCell id="8mgCA9mocodFclwpFADu-4" value="about us" style="whiteSpace=wrap;html=1;aspect=fixed;fillColor=#dae8fc;strokeColor=#6c8ebf;fontColor=#000000;" parent="t5h4ntlKS3oG1EiMdZO0-1" vertex="1"><mxGeometry x="330" y="-3215" width="45" height="45" as="geometry"/></mxCell><mxCell id="8mgCA9mocodFclwpFADu-7" value="logout" style="rounded=0;whiteSpace=wrap;html=1;fillColor=#dae8fc;strokeColor=#6c8ebf;fontColor=#000000;" parent="t5h4ntlKS3oG1EiMdZO0-1" vertex="1"><mxGeometry x="600" y="-3195" width="90" height="20" as="geometry"/></mxCell><mxCell id="8mgCA9mocodFclwpFADu-8" value="my account" style="whiteSpace=wrap;html=1;aspect=fixed;fillColor=#dae8fc;strokeColor=#6c8ebf;fontColor=#000000;" parent="t5h4ntlKS3oG1EiMdZO0-1" vertex="1"><mxGeometry x="540" y="-3212.5" width="37.5" height="37.5" as="geometry"/></mxCell><mxCell id="8mgCA9mocodFclwpFADu-9" value="profile picture" style="whiteSpace=wrap;html=1;aspect=fixed;" parent="t5h4ntlKS3oG1EiMdZO0-1" vertex="1"><mxGeometry x="640" y="-3240" width="40" height="40" as="geometry"/></mxCell><mxCell id="8mgCA9mocodFclwpFADu-10" value="ideal weight" style="rounded=0;whiteSpace=wrap;html=1;fillColor=#dae8fc;strokeColor=#6c8ebf;fontColor=#000000;" parent="t5h4ntlKS3oG1EiMdZO0-1" vertex="1"><mxGeometry x="320" y="-3120" width="120" height="40" as="geometry"/></mxCell><mxCell id="8mgCA9mocodFclwpFADu-14" value="weekly menus" style="rounded=0;whiteSpace=wrap;html=1;fillColor=#dae8fc;strokeColor=#6c8ebf;fontColor=#000000;" parent="t5h4ntlKS3oG1EiMdZO0-1" vertex="1"><mxGeometry x="320" y="-2960" width="120" height="40" as="geometry"/></mxCell><mxCell id="8mgCA9mocodFclwpFADu-15" value="make your own meals" style="rounded=0;whiteSpace=wrap;html=1;fillColor=#dae8fc;strokeColor=#6c8ebf;fontColor=#000000;" parent="t5h4ntlKS3oG1EiMdZO0-1" vertex="1"><mxGeometry x="320" y="-3040" width="120" height="40" as="geometry"/></mxCell><mxCell id="1kcmBMuvnpCB42gkU5Rv-0" value="navigation button" style="rounded=0;whiteSpace=wrap;html=1;fillColor=#dae8fc;strokeColor=#6c8ebf;" parent="t5h4ntlKS3oG1EiMdZO0-1" vertex="1"><mxGeometry y="-3255" width="80" height="40" as="geometry"/></mxCell><mxCell id="1kcmBMuvnpCB42gkU5Rv-1" value="submit button" style="rounded=0;whiteSpace=wrap;html=1;fillColor=#e1d5e7;strokeColor=#9673a6;" parent="t5h4ntlKS3oG1EiMdZO0-1" vertex="1"><mxGeometry y="-3215" width="80" height="40" as="geometry"/></mxCell><mxCell id="1kcmBMuvnpCB42gkU5Rv-2" value="input" style="rounded=0;whiteSpace=wrap;html=1;fillColor=#fff2cc;strokeColor=#d6b656;" parent="t5h4ntlKS3oG1EiMdZO0-1" vertex="1"><mxGeometry y="-3175" width="80" height="40" as="geometry"/></mxCell><mxCell id="1kcmBMuvnpCB42gkU5Rv-3" value="complex input" style="rounded=0;whiteSpace=wrap;html=1;fillColor=#ffe6cc;strokeColor=#d79b00;" parent="t5h4ntlKS3oG1EiMdZO0-1" vertex="1"><mxGeometry y="-3135" width="80" height="40" as="geometry"/></mxCell><mxCell id="1kcmBMuvnpCB42gkU5Rv-4" value="legend" style="rounded=0;whiteSpace=wrap;html=1;" parent="t5h4ntlKS3oG1EiMdZO0-1" vertex="1"><mxGeometry y="-3295" width="80" height="40" as="geometry"/></mxCell><mxCell id="HI-OCAmD_YwlpTVmajGA-0" value="calorie calculator" style="rounded=0;whiteSpace=wrap;html=1;fillColor=#dae8fc;strokeColor=#6c8ebf;" parent="t5h4ntlKS3oG1EiMdZO0-1" vertex="1"><mxGeometry x="320" y="-2880" width="120" height="40" as="geometry"/></mxCell></root></mxGraphModel></diagram><diagram id="nsds-qwrQrrErxD4soC7" name="ideal.weight.page"><mxGraphModel dx="824" dy="3703" grid="1" gridSize="10" guides="1" tooltips="1" connect="1" arrows="1" fold="1" page="1" pageScale="1" pageWidth="850" pageHeight="1100" math="0" shadow="0"><root><mxCell id="aQyhXpI_Iotmzn0sk4MF-0"/><mxCell id="aQyhXpI_Iotmzn0sk4MF-1" parent="aQyhXpI_Iotmzn0sk4MF-0"/><mxCell id="RuGEQduTDerfvcmNlpmX-0" value="upbar" style="rounded=0;whiteSpace=wrap;html=1;" parent="aQyhXpI_Iotmzn0sk4MF-1" vertex="1"><mxGeometry x="100" y="-3250" width="600" height="92.5" as="geometry"/></mxCell><mxCell id="RuGEQduTDerfvcmNlpmX-1" value="logo" style="ellipse;whiteSpace=wrap;html=1;aspect=fixed;" parent="aQyhXpI_Iotmzn0sk4MF-1" vertex="1"><mxGeometry x="150" y="-3228.75" width="50" height="50" as="geometry"/></mxCell><mxCell id="RuGEQduTDerfvcmNlpmX-2" value="home" style="whiteSpace=wrap;html=1;aspect=fixed;fillColor=#dae8fc;strokeColor=#6c8ebf;" parent="aQyhXpI_Iotmzn0sk4MF-1" vertex="1"><mxGeometry x="250" y="-3217.5" width="45" height="45" as="geometry"/></mxCell><mxCell id="RuGEQduTDerfvcmNlpmX-3" value="contact" style="whiteSpace=wrap;html=1;aspect=fixed;fillColor=#dae8fc;strokeColor=#6c8ebf;" parent="aQyhXpI_Iotmzn0sk4MF-1" vertex="1"><mxGeometry x="460" y="-3212.5" width="40" height="40" as="geometry"/></mxCell><mxCell id="RuGEQduTDerfvcmNlpmX-4" value="about us" style="whiteSpace=wrap;html=1;aspect=fixed;fillColor=#dae8fc;strokeColor=#6c8ebf;" parent="aQyhXpI_Iotmzn0sk4MF-1" vertex="1"><mxGeometry x="330" y="-3215" as="geometry"/></mxCell><mxCell id="RuGEQduTDerfvcmNlpmX-5" value="logout" style="rounded=0;whiteSpace=wrap;html=1;fillColor=#dae8fc;strokeColor=#6c8ebf;" parent="aQyhXpI_Iotmzn0sk4MF-1" vertex="1"><mxGeometry x="600" y="-3195" width="90" height="20" as="geometry"/></mxCell><mxCell id="RuGEQduTDerfvcmNlpmX-6" value="my account" style="whiteSpace=wrap;html=1;aspect=fixed;fillColor=#dae8fc;strokeColor=#6c8ebf;" parent="aQyhXpI_Iotmzn0sk4MF-1" vertex="1"><mxGeometry x="540" y="-3212.5" width="37.5" height="37.5" as="geometry"/></mxCell><mxCell id="RuGEQduTDerfvcmNlpmX-7" value="profile picture" style="whiteSpace=wrap;html=1;aspect=fixed;" parent="aQyhXpI_Iotmzn0sk4MF-1" vertex="1"><mxGeometry x="640" y="-3240" width="40" height="40" as="geometry"/></mxCell><mxCell id="RuGEQduTDerfvcmNlpmX-8" value="male" style="rounded=0;whiteSpace=wrap;html=1;fillColor=#dae8fc;strokeColor=#6c8ebf;" parent="aQyhXpI_Iotmzn0sk4MF-1" vertex="1"><mxGeometry x="310" y="-3120" width="100" height="30" as="geometry"/></mxCell><mxCell id="RuGEQduTDerfvcmNlpmX-9" value="female" style="rounded=0;whiteSpace=wrap;html=1;fillColor=#dae8fc;strokeColor=#6c8ebf;" parent="aQyhXpI_Iotmzn0sk4MF-1" vertex="1"><mxGeometry x="440" y="-3120" width="100" height="30" as="geometry"/></mxCell><mxCell id="RuGEQduTDerfvcmNlpmX-10" value="select option" style="rounded=1;whiteSpace=wrap;html=1;" parent="aQyhXpI_Iotmzn0sk4MF-1" vertex="1"><mxGeometry x="150" y="-3130" width="120" height="40" as="geometry"/></mxCell><mxCell id="93hmGzNHGX2reZq_gKHL-0" value="navigation button" style="rounded=0;whiteSpace=wrap;html=1;fillColor=#dae8fc;strokeColor=#6c8ebf;" parent="aQyhXpI_Iotmzn0sk4MF-1" vertex="1"><mxGeometry x="10" y="-3210" width="80" height="40" as="geometry"/></mxCell><mxCell id="93hmGzNHGX2reZq_gKHL-1" value="submit button" style="rounded=0;whiteSpace=wrap;html=1;fillColor=#e1d5e7;strokeColor=#9673a6;" parent="aQyhXpI_Iotmzn0sk4MF-1" vertex="1"><mxGeometry x="10" y="-3170" width="80" height="40" as="geometry"/></mxCell><mxCell id="93hmGzNHGX2reZq_gKHL-2" value="input" style="rounded=0;whiteSpace=wrap;html=1;fillColor=#fff2cc;strokeColor=#d6b656;" parent="aQyhXpI_Iotmzn0sk4MF-1" vertex="1"><mxGeometry x="10" y="-3130" width="80" height="40" as="geometry"/></mxCell><mxCell id="93hmGzNHGX2reZq_gKHL-3" value="complex input" style="rounded=0;whiteSpace=wrap;html=1;fillColor=#ffe6cc;strokeColor=#d79b00;" parent="aQyhXpI_Iotmzn0sk4MF-1" vertex="1"><mxGeometry x="10" y="-3090" width="80" height="40" as="geometry"/></mxCell><mxCell id="93hmGzNHGX2reZq_gKHL-4" value="legend" style="rounded=0;whiteSpace=wrap;html=1;" parent="aQyhXpI_Iotmzn0sk4MF-1" vertex="1"><mxGeometry x="10" y="-3250" width="80" height="40" as="geometry"/></mxCell><mxCell id="93hmGzNHGX2reZq_gKHL-5" value="input age" style="rounded=0;whiteSpace=wrap;html=1;" parent="aQyhXpI_Iotmzn0sk4MF-1" vertex="1"><mxGeometry x="320" y="-3040" width="110" height="20" as="geometry"/></mxCell><mxCell id="93hmGzNHGX2reZq_gKHL-7" value="input height" style="rounded=0;whiteSpace=wrap;html=1;" parent="aQyhXpI_Iotmzn0sk4MF-1" vertex="1"><mxGeometry x="320" y="-2960" width="110" height="20" as="geometry"/></mxCell><mxCell id="eFTWVSXnvEd_lq0kY4F1-0" value="" style="rounded=0;whiteSpace=wrap;html=1;fillColor=#fff2cc;strokeColor=#d6b656;fontColor=#000000;" parent="aQyhXpI_Iotmzn0sk4MF-1" vertex="1"><mxGeometry x="320" y="-3010" width="180" height="40" as="geometry"/></mxCell><mxCell id="eFTWVSXnvEd_lq0kY4F1-1" value="" style="rounded=0;whiteSpace=wrap;html=1;fillColor=#fff2cc;strokeColor=#d6b656;" parent="aQyhXpI_Iotmzn0sk4MF-1" vertex="1"><mxGeometry x="320" y="-2930" width="180" height="40" as="geometry"/></mxCell><mxCell id="eFTWVSXnvEd_lq0kY4F1-3" value="submit" style="rounded=0;whiteSpace=wrap;html=1;fillColor=#e1d5e7;strokeColor=#9673a6;fontColor=#000000;" parent="aQyhXpI_Iotmzn0sk4MF-1" vertex="1"><mxGeometry x="230" y="-2860" width="120" height="40" as="geometry"/></mxCell><mxCell id="eFTWVSXnvEd_lq0kY4F1-4" value="your ideal weight is:" style="rounded=0;whiteSpace=wrap;html=1;" parent="aQyhXpI_Iotmzn0sk4MF-1" vertex="1"><mxGeometry x="570" y="-2930" width="150" height="40" as="geometry"/></mxCell><mxCell id="eFTWVSXnvEd_lq0kY4F1-5" value="result" style="rounded=0;whiteSpace=wrap;html=1;" parent="aQyhXpI_Iotmzn0sk4MF-1" vertex="1"><mxGeometry x="570" y="-2870" width="150" height="60" as="geometry"/></mxCell></root></mxGraphModel></diagram><diagram id="djcP6vW6fJW2ODm1nWQ9" name="make.your.own.menu"><mxGraphModel dx="824" dy="7003" grid="1" gridSize="10" guides="1" tooltips="1" connect="1" arrows="1" fold="1" page="1" pageScale="1" pageWidth="850" pageHeight="1100" math="0" shadow="0"><root><mxCell id="Vbt0Ff9Bb3C4dDQiD0o8-0"/><mxCell id="Vbt0Ff9Bb3C4dDQiD0o8-1" parent="Vbt0Ff9Bb3C4dDQiD0o8-0"/><mxCell id="p700wEH_4LfupyOaMrwM-0" value="upbar" style="rounded=0;whiteSpace=wrap;html=1;" parent="Vbt0Ff9Bb3C4dDQiD0o8-1" vertex="1"><mxGeometry x="110" y="-5880" width="600" height="92.5" as="geometry"/></mxCell><mxCell id="p700wEH_4LfupyOaMrwM-1" value="logo" style="ellipse;whiteSpace=wrap;html=1;aspect=fixed;" parent="Vbt0Ff9Bb3C4dDQiD0o8-1" vertex="1"><mxGeometry x="160" y="-5858.75" width="50" height="50" as="geometry"/></mxCell><mxCell id="p700wEH_4LfupyOaMrwM-2" value="&lt;font color=&quot;#000000&quot;&gt;home&lt;/font&gt;" style="whiteSpace=wrap;html=1;aspect=fixed;fillColor=#dae8fc;strokeColor=#6c8ebf;" parent="Vbt0Ff9Bb3C4dDQiD0o8-1" vertex="1"><mxGeometry x="260" y="-5847.5" width="45" height="45" as="geometry"/></mxCell><mxCell id="p700wEH_4LfupyOaMrwM-3" value="&lt;font color=&quot;#000000&quot;&gt;contact&lt;/font&gt;" style="whiteSpace=wrap;html=1;aspect=fixed;fillColor=#dae8fc;strokeColor=#6c8ebf;" parent="Vbt0Ff9Bb3C4dDQiD0o8-1" vertex="1"><mxGeometry x="470" y="-5842.5" width="40" height="40" as="geometry"/></mxCell><mxCell id="p700wEH_4LfupyOaMrwM-4" value="&lt;font color=&quot;#000000&quot;&gt;about us&lt;/font&gt;" style="whiteSpace=wrap;html=1;aspect=fixed;fillColor=#dae8fc;strokeColor=#6c8ebf;" parent="Vbt0Ff9Bb3C4dDQiD0o8-1" vertex="1"><mxGeometry x="340" y="-5845" width="45" height="45" as="geometry"/></mxCell><mxCell id="p700wEH_4LfupyOaMrwM-5" value="&lt;font color=&quot;#000000&quot;&gt;logout&lt;/font&gt;" style="rounded=0;whiteSpace=wrap;html=1;fillColor=#dae8fc;strokeColor=#6c8ebf;" parent="Vbt0Ff9Bb3C4dDQiD0o8-1" vertex="1"><mxGeometry x="610" y="-5825" width="90" height="20" as="geometry"/></mxCell><mxCell id="p700wEH_4LfupyOaMrwM-6" value="&lt;font color=&quot;#000000&quot;&gt;my account&lt;/font&gt;" style="whiteSpace=wrap;html=1;aspect=fixed;fillColor=#dae8fc;strokeColor=#6c8ebf;" parent="Vbt0Ff9Bb3C4dDQiD0o8-1" vertex="1"><mxGeometry x="550" y="-5842.5" width="37.5" height="37.5" as="geometry"/></mxCell><mxCell id="p700wEH_4LfupyOaMrwM-7" value="profile picture" style="whiteSpace=wrap;html=1;aspect=fixed;" parent="Vbt0Ff9Bb3C4dDQiD0o8-1" vertex="1"><mxGeometry x="650" y="-5870" width="40" height="40" as="geometry"/></mxCell><mxCell id="o20NkgzP6663_L70M4Fb-0" value="&lt;font color=&quot;#000000&quot;&gt;navigation button&lt;/font&gt;" style="rounded=0;whiteSpace=wrap;html=1;fillColor=#dae8fc;strokeColor=#6c8ebf;" parent="Vbt0Ff9Bb3C4dDQiD0o8-1" vertex="1"><mxGeometry x="10" y="-5910" width="80" height="40" as="geometry"/></mxCell><mxCell id="o20NkgzP6663_L70M4Fb-1" value="&lt;font color=&quot;#000000&quot;&gt;submit button&lt;/font&gt;" style="rounded=0;whiteSpace=wrap;html=1;fillColor=#e1d5e7;strokeColor=#9673a6;" parent="Vbt0Ff9Bb3C4dDQiD0o8-1" vertex="1"><mxGeometry x="10" y="-5870" width="80" height="40" as="geometry"/></mxCell><mxCell id="o20NkgzP6663_L70M4Fb-2" value="&lt;font color=&quot;#000000&quot;&gt;input&lt;/font&gt;" style="rounded=0;whiteSpace=wrap;html=1;fillColor=#fff2cc;strokeColor=#d6b656;" parent="Vbt0Ff9Bb3C4dDQiD0o8-1" vertex="1"><mxGeometry x="10" y="-5830" width="80" height="40" as="geometry"/></mxCell><mxCell id="o20NkgzP6663_L70M4Fb-3" value="&lt;font color=&quot;#000000&quot;&gt;complex input&lt;/font&gt;" style="rounded=0;whiteSpace=wrap;html=1;fillColor=#ffe6cc;strokeColor=#d79b00;" parent="Vbt0Ff9Bb3C4dDQiD0o8-1" vertex="1"><mxGeometry x="10" y="-5790" width="80" height="40" as="geometry"/></mxCell><mxCell id="o20NkgzP6663_L70M4Fb-4" value="legend" style="rounded=0;whiteSpace=wrap;html=1;" parent="Vbt0Ff9Bb3C4dDQiD0o8-1" vertex="1"><mxGeometry x="10" y="-5950" width="80" height="40" as="geometry"/></mxCell><mxCell id="x2DLGtw2fkxEiqkoQ6eI-9" value="" style="rounded=1;whiteSpace=wrap;html=1;" parent="Vbt0Ff9Bb3C4dDQiD0o8-1" vertex="1"><mxGeometry x="50" y="-5710" width="200" height="500" as="geometry"/></mxCell><mxCell id="x2DLGtw2fkxEiqkoQ6eI-10" value="" style="rounded=0;whiteSpace=wrap;html=1;" parent="Vbt0Ff9Bb3C4dDQiD0o8-1" vertex="1"><mxGeometry x="250" y="-5710" width="10" height="510" as="geometry"/></mxCell><mxCell id="x2DLGtw2fkxEiqkoQ6eI-11" value="" style="endArrow=none;html=1;exitX=0.5;exitY=1;exitDx=0;exitDy=0;entryX=0.5;entryY=0;entryDx=0;entryDy=0;" parent="Vbt0Ff9Bb3C4dDQiD0o8-1" source="x2DLGtw2fkxEiqkoQ6eI-9" target="x2DLGtw2fkxEiqkoQ6eI-9" edge="1"><mxGeometry width="50" height="50" relative="1" as="geometry"><mxPoint x="400" y="-5470" as="sourcePoint"/><mxPoint x="450" y="-5520" as="targetPoint"/><Array as="points"><mxPoint x="150" y="-5530"/></Array></mxGeometry></mxCell><mxCell id="x2DLGtw2fkxEiqkoQ6eI-12" value="aliments" style="text;html=1;strokeColor=none;fillColor=none;align=center;verticalAlign=middle;whiteSpace=wrap;rounded=0;" parent="Vbt0Ff9Bb3C4dDQiD0o8-1" vertex="1"><mxGeometry x="80" y="-5520" width="40" height="30" as="geometry"/></mxCell><mxCell id="x2DLGtw2fkxEiqkoQ6eI-13" value="&amp;nbsp;calories / 100 g" style="text;html=1;strokeColor=none;fillColor=none;align=center;verticalAlign=middle;whiteSpace=wrap;rounded=0;" parent="Vbt0Ff9Bb3C4dDQiD0o8-1" vertex="1"><mxGeometry x="180" y="-5520" width="50" height="30" as="geometry"/></mxCell><mxCell id="x2DLGtw2fkxEiqkoQ6eI-14" value="" style="rounded=0;whiteSpace=wrap;html=1;" parent="Vbt0Ff9Bb3C4dDQiD0o8-1" vertex="1"><mxGeometry x="360" y="-5710" width="460" height="520" as="geometry"/></mxCell><mxCell id="uRccfYFV-Sm1fCnpd6W1-0" value="daily calories" style="text;html=1;strokeColor=none;fillColor=none;align=center;verticalAlign=middle;whiteSpace=wrap;rounded=0;" parent="Vbt0Ff9Bb3C4dDQiD0o8-1" vertex="1"><mxGeometry x="280" y="-5760" width="150" height="40" as="geometry"/></mxCell><mxCell id="uRccfYFV-Sm1fCnpd6W1-2" value="" style="endArrow=none;html=1;exitX=1.004;exitY=0.113;exitDx=0;exitDy=0;exitPerimeter=0;entryX=-0.002;entryY=0.108;entryDx=0;entryDy=0;entryPerimeter=0;" parent="Vbt0Ff9Bb3C4dDQiD0o8-1" source="x2DLGtw2fkxEiqkoQ6eI-14" target="x2DLGtw2fkxEiqkoQ6eI-14" edge="1"><mxGeometry width="50" height="50" relative="1" as="geometry"><mxPoint x="400" y="-5490" as="sourcePoint"/><mxPoint x="450" y="-5540" as="targetPoint"/></mxGeometry></mxCell><mxCell id="uRccfYFV-Sm1fCnpd6W1-5" value="days of the week" style="text;html=1;strokeColor=none;fillColor=none;align=center;verticalAlign=middle;whiteSpace=wrap;rounded=0;" parent="Vbt0Ff9Bb3C4dDQiD0o8-1" vertex="1"><mxGeometry x="480" y="-5690" width="220" height="30" as="geometry"/></mxCell><mxCell id="uRccfYFV-Sm1fCnpd6W1-6" value="" style="rounded=0;whiteSpace=wrap;html=1;" parent="Vbt0Ff9Bb3C4dDQiD0o8-1" vertex="1"><mxGeometry x="360" y="-5650" width="70" height="460" as="geometry"/></mxCell><mxCell id="uRccfYFV-Sm1fCnpd6W1-7" value="breackfast" style="text;html=1;strokeColor=none;fillColor=none;align=center;verticalAlign=middle;whiteSpace=wrap;rounded=0;" parent="Vbt0Ff9Bb3C4dDQiD0o8-1" vertex="1"><mxGeometry x="360" y="-5600" width="70" height="30" as="geometry"/></mxCell><mxCell id="uRccfYFV-Sm1fCnpd6W1-9" value="lunch" style="text;html=1;strokeColor=none;fillColor=none;align=center;verticalAlign=middle;whiteSpace=wrap;rounded=0;" parent="Vbt0Ff9Bb3C4dDQiD0o8-1" vertex="1"><mxGeometry x="375" y="-5465" width="40" height="30" as="geometry"/></mxCell><mxCell id="uRccfYFV-Sm1fCnpd6W1-11" value="dinner" style="text;html=1;strokeColor=none;fillColor=none;align=center;verticalAlign=middle;whiteSpace=wrap;rounded=0;" parent="Vbt0Ff9Bb3C4dDQiD0o8-1" vertex="1"><mxGeometry x="380" y="-5270" width="40" height="20" as="geometry"/></mxCell><mxCell id="uRccfYFV-Sm1fCnpd6W1-13" value="introduced aliments" style="rounded=0;whiteSpace=wrap;html=1;" parent="Vbt0Ff9Bb3C4dDQiD0o8-1" vertex="1"><mxGeometry x="430" y="-5650" width="60" height="130" as="geometry"/></mxCell><mxCell id="uRccfYFV-Sm1fCnpd6W1-14" value="total number of calories" style="rounded=0;whiteSpace=wrap;html=1;" parent="Vbt0Ff9Bb3C4dDQiD0o8-1" vertex="1"><mxGeometry x="490" y="-5650" width="60" height="130" as="geometry"/></mxCell><mxCell id="gRmcI3YmrPOSQz_Q6hQF-0" value="error message" style="text;html=1;strokeColor=none;fillColor=none;align=center;verticalAlign=middle;whiteSpace=wrap;rounded=0;" parent="Vbt0Ff9Bb3C4dDQiD0o8-1" vertex="1"><mxGeometry x="240" y="-5120" width="250" height="20" as="geometry"/></mxCell></root></mxGraphModel></diagram><diagram id="KdLsIRccg98iK4b-f9QH" name="weekly.menus"><mxGraphModel dx="824" dy="7003" grid="1" gridSize="10" guides="1" tooltips="1" connect="1" arrows="1" fold="1" page="1" pageScale="1" pageWidth="850" pageHeight="1100" math="0" shadow="0"><root><mxCell id="h4XE0gfhQfNCgzoQZWAj-0"/><mxCell id="h4XE0gfhQfNCgzoQZWAj-1" parent="h4XE0gfhQfNCgzoQZWAj-0"/><mxCell id="Gv1i1IV_M8SiLbK-yhA4-0" value="upbar" style="rounded=0;whiteSpace=wrap;html=1;" parent="h4XE0gfhQfNCgzoQZWAj-1" vertex="1"><mxGeometry x="110" y="-5880" width="600" height="92.5" as="geometry"/></mxCell><mxCell id="Gv1i1IV_M8SiLbK-yhA4-1" value="logo" style="ellipse;whiteSpace=wrap;html=1;aspect=fixed;" parent="h4XE0gfhQfNCgzoQZWAj-1" vertex="1"><mxGeometry x="160" y="-5858.75" width="50" height="50" as="geometry"/></mxCell><mxCell id="Gv1i1IV_M8SiLbK-yhA4-2" value="&lt;font color=&quot;#000000&quot;&gt;home&lt;/font&gt;" style="whiteSpace=wrap;html=1;aspect=fixed;fillColor=#dae8fc;strokeColor=#6c8ebf;" parent="h4XE0gfhQfNCgzoQZWAj-1" vertex="1"><mxGeometry x="260" y="-5847.5" width="45" height="45" as="geometry"/></mxCell><mxCell id="Gv1i1IV_M8SiLbK-yhA4-3" value="&lt;font color=&quot;#000000&quot;&gt;contact&lt;/font&gt;" style="whiteSpace=wrap;html=1;aspect=fixed;fillColor=#dae8fc;strokeColor=#6c8ebf;" parent="h4XE0gfhQfNCgzoQZWAj-1" vertex="1"><mxGeometry x="470" y="-5842.5" width="40" height="40" as="geometry"/></mxCell><mxCell id="Gv1i1IV_M8SiLbK-yhA4-4" value="&lt;font color=&quot;#000000&quot;&gt;about us&lt;/font&gt;" style="whiteSpace=wrap;html=1;aspect=fixed;fillColor=#dae8fc;strokeColor=#6c8ebf;" parent="h4XE0gfhQfNCgzoQZWAj-1" vertex="1"><mxGeometry x="340" y="-5845" width="45" height="45" as="geometry"/></mxCell><mxCell id="Gv1i1IV_M8SiLbK-yhA4-5" value="&lt;font color=&quot;#000000&quot;&gt;logout&lt;/font&gt;" style="rounded=0;whiteSpace=wrap;html=1;fillColor=#dae8fc;strokeColor=#6c8ebf;" parent="h4XE0gfhQfNCgzoQZWAj-1" vertex="1"><mxGeometry x="610" y="-5825" width="90" height="20" as="geometry"/></mxCell><mxCell id="Gv1i1IV_M8SiLbK-yhA4-6" value="&lt;font color=&quot;#000000&quot;&gt;my account&lt;/font&gt;" style="whiteSpace=wrap;html=1;aspect=fixed;fillColor=#dae8fc;strokeColor=#6c8ebf;" parent="h4XE0gfhQfNCgzoQZWAj-1" vertex="1"><mxGeometry x="550" y="-5842.5" width="37.5" height="37.5" as="geometry"/></mxCell><mxCell id="Gv1i1IV_M8SiLbK-yhA4-7" value="profile picture" style="whiteSpace=wrap;html=1;aspect=fixed;" parent="h4XE0gfhQfNCgzoQZWAj-1" vertex="1"><mxGeometry x="650" y="-5870" width="40" height="40" as="geometry"/></mxCell><mxCell id="Gv1i1IV_M8SiLbK-yhA4-8" value="&lt;font color=&quot;#000000&quot;&gt;navigation button&lt;/font&gt;" style="rounded=0;whiteSpace=wrap;html=1;fillColor=#dae8fc;strokeColor=#6c8ebf;" parent="h4XE0gfhQfNCgzoQZWAj-1" vertex="1"><mxGeometry x="10" y="-5910" width="80" height="40" as="geometry"/></mxCell><mxCell id="Gv1i1IV_M8SiLbK-yhA4-9" value="&lt;font color=&quot;#000000&quot;&gt;submit button&lt;/font&gt;" style="rounded=0;whiteSpace=wrap;html=1;fillColor=#e1d5e7;strokeColor=#9673a6;" parent="h4XE0gfhQfNCgzoQZWAj-1" vertex="1"><mxGeometry x="10" y="-5870" width="80" height="40" as="geometry"/></mxCell><mxCell id="Gv1i1IV_M8SiLbK-yhA4-10" value="&lt;font color=&quot;#000000&quot;&gt;input&lt;/font&gt;" style="rounded=0;whiteSpace=wrap;html=1;fillColor=#fff2cc;strokeColor=#d6b656;" parent="h4XE0gfhQfNCgzoQZWAj-1" vertex="1"><mxGeometry x="10" y="-5830" width="80" height="40" as="geometry"/></mxCell><mxCell id="Gv1i1IV_M8SiLbK-yhA4-11" value="&lt;font color=&quot;#000000&quot;&gt;complex input&lt;/font&gt;" style="rounded=0;whiteSpace=wrap;html=1;fillColor=#ffe6cc;strokeColor=#d79b00;" parent="h4XE0gfhQfNCgzoQZWAj-1" vertex="1"><mxGeometry x="10" y="-5790" width="80" height="40" as="geometry"/></mxCell><mxCell id="Gv1i1IV_M8SiLbK-yhA4-12" value="legend" style="rounded=0;whiteSpace=wrap;html=1;" parent="h4XE0gfhQfNCgzoQZWAj-1" vertex="1"><mxGeometry x="10" y="-5950" width="80" height="40" as="geometry"/></mxCell><mxCell id="Gv1i1IV_M8SiLbK-yhA4-13" value="" style="rounded=0;whiteSpace=wrap;html=1;" parent="h4XE0gfhQfNCgzoQZWAj-1" vertex="1"><mxGeometry x="110" y="-5720" width="610" height="440" as="geometry"/></mxCell><mxCell id="Gv1i1IV_M8SiLbK-yhA4-14" value="" style="endArrow=none;html=1;entryX=0.118;entryY=-0.002;entryDx=0;entryDy=0;entryPerimeter=0;exitX=0.126;exitY=1;exitDx=0;exitDy=0;exitPerimeter=0;" parent="h4XE0gfhQfNCgzoQZWAj-1" source="Gv1i1IV_M8SiLbK-yhA4-13" target="Gv1i1IV_M8SiLbK-yhA4-13" edge="1"><mxGeometry width="50" height="50" relative="1" as="geometry"><mxPoint x="400" y="-5540" as="sourcePoint"/><mxPoint x="450" y="-5590" as="targetPoint"/></mxGeometry></mxCell><mxCell id="Gv1i1IV_M8SiLbK-yhA4-15" value="" style="endArrow=none;html=1;" parent="h4XE0gfhQfNCgzoQZWAj-1" edge="1"><mxGeometry width="50" height="50" relative="1" as="geometry"><mxPoint x="190" y="-5610" as="sourcePoint"/><mxPoint x="722" y="-5610" as="targetPoint"/></mxGeometry></mxCell><mxCell id="Gv1i1IV_M8SiLbK-yhA4-16" value="" style="endArrow=none;html=1;" parent="h4XE0gfhQfNCgzoQZWAj-1" edge="1"><mxGeometry width="50" height="50" relative="1" as="geometry"><mxPoint x="180" y="-5420" as="sourcePoint"/><mxPoint x="720" y="-5420" as="targetPoint"/></mxGeometry></mxCell><mxCell id="Gv1i1IV_M8SiLbK-yhA4-17" value="dinner" style="text;html=1;strokeColor=none;fillColor=none;align=center;verticalAlign=middle;whiteSpace=wrap;rounded=0;" parent="h4XE0gfhQfNCgzoQZWAj-1" vertex="1"><mxGeometry x="130" y="-5350" width="40" height="20" as="geometry"/></mxCell><mxCell id="Gv1i1IV_M8SiLbK-yhA4-18" value="lunch" style="text;html=1;strokeColor=none;fillColor=none;align=center;verticalAlign=middle;whiteSpace=wrap;rounded=0;" parent="h4XE0gfhQfNCgzoQZWAj-1" vertex="1"><mxGeometry x="130" y="-5550" width="40" height="20" as="geometry"/></mxCell><mxCell id="Z3fLAGP1JXs2fWNaKSQS-0" value="breakfast" style="text;html=1;strokeColor=none;fillColor=none;align=center;verticalAlign=middle;whiteSpace=wrap;rounded=0;" parent="h4XE0gfhQfNCgzoQZWAj-1" vertex="1"><mxGeometry x="130" y="-5680" width="40" height="20" as="geometry"/></mxCell><mxCell id="Z3fLAGP1JXs2fWNaKSQS-1" value="menu 1" style="text;html=1;strokeColor=none;fillColor=none;align=center;verticalAlign=middle;whiteSpace=wrap;rounded=0;" parent="h4XE0gfhQfNCgzoQZWAj-1" vertex="1"><mxGeometry x="380" y="-5700" width="60" height="20" as="geometry"/></mxCell><mxCell id="Z3fLAGP1JXs2fWNaKSQS-2" value="menu 2" style="text;html=1;strokeColor=none;fillColor=none;align=center;verticalAlign=middle;whiteSpace=wrap;rounded=0;" parent="h4XE0gfhQfNCgzoQZWAj-1" vertex="1"><mxGeometry x="380" y="-5650" width="60" height="20" as="geometry"/></mxCell></root></mxGraphModel></diagram><diagram id="pG8clhjJu4GUMoErn7Pi" name="calorie.calculator"><mxGraphModel dx="824" dy="7003" grid="1" gridSize="10" guides="1" tooltips="1" connect="1" arrows="1" fold="1" page="1" pageScale="1" pageWidth="850" pageHeight="1100" math="0" shadow="0"><root><mxCell id="fhCK0Nvtap5ZFYeba8bG-0"/><mxCell id="fhCK0Nvtap5ZFYeba8bG-1" parent="fhCK0Nvtap5ZFYeba8bG-0"/><mxCell id="80MSlf4cWozF217WzbGU-0" value="upbar" style="rounded=0;whiteSpace=wrap;html=1;" parent="fhCK0Nvtap5ZFYeba8bG-1" vertex="1"><mxGeometry x="175" y="-6500" width="600" height="92.5" as="geometry"/></mxCell><mxCell id="80MSlf4cWozF217WzbGU-1" value="logo" style="ellipse;whiteSpace=wrap;html=1;aspect=fixed;" parent="fhCK0Nvtap5ZFYeba8bG-1" vertex="1"><mxGeometry x="225" y="-6478.75" width="50" height="50" as="geometry"/></mxCell><mxCell id="80MSlf4cWozF217WzbGU-2" value="&lt;font color=&quot;#000000&quot;&gt;home&lt;/font&gt;" style="whiteSpace=wrap;html=1;aspect=fixed;fillColor=#dae8fc;strokeColor=#6c8ebf;" parent="fhCK0Nvtap5ZFYeba8bG-1" vertex="1"><mxGeometry x="325" y="-6467.5" width="45" height="45" as="geometry"/></mxCell><mxCell id="80MSlf4cWozF217WzbGU-3" value="&lt;font color=&quot;#000000&quot;&gt;contact&lt;/font&gt;" style="whiteSpace=wrap;html=1;aspect=fixed;fillColor=#dae8fc;strokeColor=#6c8ebf;" parent="fhCK0Nvtap5ZFYeba8bG-1" vertex="1"><mxGeometry x="535" y="-6462.5" width="40" height="40" as="geometry"/></mxCell><mxCell id="80MSlf4cWozF217WzbGU-4" value="&lt;font color=&quot;#000000&quot;&gt;about us&lt;/font&gt;" style="whiteSpace=wrap;html=1;aspect=fixed;fillColor=#dae8fc;strokeColor=#6c8ebf;" parent="fhCK0Nvtap5ZFYeba8bG-1" vertex="1"><mxGeometry x="405" y="-6465" width="45" height="45" as="geometry"/></mxCell><mxCell id="80MSlf4cWozF217WzbGU-5" value="&lt;font color=&quot;#000000&quot;&gt;logout&lt;/font&gt;" style="rounded=0;whiteSpace=wrap;html=1;fillColor=#dae8fc;strokeColor=#6c8ebf;" parent="fhCK0Nvtap5ZFYeba8bG-1" vertex="1"><mxGeometry x="675" y="-6445" width="90" height="20" as="geometry"/></mxCell><mxCell id="80MSlf4cWozF217WzbGU-6" value="&lt;font color=&quot;#000000&quot;&gt;my account&lt;/font&gt;" style="whiteSpace=wrap;html=1;aspect=fixed;fillColor=#dae8fc;strokeColor=#6c8ebf;" parent="fhCK0Nvtap5ZFYeba8bG-1" vertex="1"><mxGeometry x="615" y="-6462.5" width="37.5" height="37.5" as="geometry"/></mxCell><mxCell id="80MSlf4cWozF217WzbGU-7" value="profile picture" style="whiteSpace=wrap;html=1;aspect=fixed;" parent="fhCK0Nvtap5ZFYeba8bG-1" vertex="1"><mxGeometry x="715" y="-6490" width="40" height="40" as="geometry"/></mxCell><mxCell id="80MSlf4cWozF217WzbGU-8" value="&lt;font color=&quot;#000000&quot;&gt;navigation button&lt;/font&gt;" style="rounded=0;whiteSpace=wrap;html=1;fillColor=#dae8fc;strokeColor=#6c8ebf;" parent="fhCK0Nvtap5ZFYeba8bG-1" vertex="1"><mxGeometry x="75" y="-6530" width="80" height="40" as="geometry"/></mxCell><mxCell id="80MSlf4cWozF217WzbGU-9" value="&lt;font color=&quot;#000000&quot;&gt;submit button&lt;/font&gt;" style="rounded=0;whiteSpace=wrap;html=1;fillColor=#e1d5e7;strokeColor=#9673a6;" parent="fhCK0Nvtap5ZFYeba8bG-1" vertex="1"><mxGeometry x="75" y="-6490" width="80" height="40" as="geometry"/></mxCell><mxCell id="80MSlf4cWozF217WzbGU-10" value="&lt;font color=&quot;#000000&quot;&gt;input&lt;/font&gt;" style="rounded=0;whiteSpace=wrap;html=1;fillColor=#fff2cc;strokeColor=#d6b656;" parent="fhCK0Nvtap5ZFYeba8bG-1" vertex="1"><mxGeometry x="75" y="-6450" width="80" height="40" as="geometry"/></mxCell><mxCell id="80MSlf4cWozF217WzbGU-11" value="&lt;font color=&quot;#000000&quot;&gt;complex input&lt;/font&gt;" style="rounded=0;whiteSpace=wrap;html=1;fillColor=#ffe6cc;strokeColor=#d79b00;" parent="fhCK0Nvtap5ZFYeba8bG-1" vertex="1"><mxGeometry x="75" y="-6410" width="80" height="40" as="geometry"/></mxCell><mxCell id="80MSlf4cWozF217WzbGU-12" value="legend" style="rounded=0;whiteSpace=wrap;html=1;" parent="fhCK0Nvtap5ZFYeba8bG-1" vertex="1"><mxGeometry x="75" y="-6570" width="80" height="40" as="geometry"/></mxCell><mxCell id="80MSlf4cWozF217WzbGU-13" value="input age" style="text;html=1;strokeColor=none;fillColor=none;align=center;verticalAlign=middle;whiteSpace=wrap;rounded=0;" parent="fhCK0Nvtap5ZFYeba8bG-1" vertex="1"><mxGeometry x="165" y="-6360" width="90" height="20" as="geometry"/></mxCell><mxCell id="WBum0692gKrfZyvX0muk-0" value="" style="rounded=0;whiteSpace=wrap;html=1;fillColor=#fff2cc;strokeColor=#d6b656;" parent="fhCK0Nvtap5ZFYeba8bG-1" vertex="1"><mxGeometry x="265" y="-6365" width="60" height="25" as="geometry"/></mxCell><mxCell id="WBum0692gKrfZyvX0muk-1" value="gender" style="text;html=1;strokeColor=none;fillColor=none;align=center;verticalAlign=middle;whiteSpace=wrap;rounded=0;" parent="fhCK0Nvtap5ZFYeba8bG-1" vertex="1"><mxGeometry x="185" y="-6320" width="40" height="20" as="geometry"/></mxCell><mxCell id="Fjg6gQPjV4yVkcDUtzbh-0" value="&lt;font color=&quot;#000000&quot;&gt;male&lt;/font&gt;" style="rounded=0;whiteSpace=wrap;html=1;fillColor=#dae8fc;strokeColor=#6c8ebf;" parent="fhCK0Nvtap5ZFYeba8bG-1" vertex="1"><mxGeometry x="265" y="-6320" width="50" height="20" as="geometry"/></mxCell><mxCell id="Fjg6gQPjV4yVkcDUtzbh-1" value="&lt;font color=&quot;#000000&quot;&gt;female&lt;/font&gt;" style="rounded=0;whiteSpace=wrap;html=1;fillColor=#dae8fc;strokeColor=#6c8ebf;" parent="fhCK0Nvtap5ZFYeba8bG-1" vertex="1"><mxGeometry x="320" y="-6320" width="50" height="20" as="geometry"/></mxCell><mxCell id="Fjg6gQPjV4yVkcDUtzbh-2" value="height" style="text;html=1;strokeColor=none;fillColor=none;align=center;verticalAlign=middle;whiteSpace=wrap;rounded=0;" parent="fhCK0Nvtap5ZFYeba8bG-1" vertex="1"><mxGeometry x="185" y="-6280" width="40" height="20" as="geometry"/></mxCell><mxCell id="Fjg6gQPjV4yVkcDUtzbh-3" value="" style="rounded=0;whiteSpace=wrap;html=1;fillColor=#fff2cc;strokeColor=#d6b656;" parent="fhCK0Nvtap5ZFYeba8bG-1" vertex="1"><mxGeometry x="265" y="-6280" width="60" height="20" as="geometry"/></mxCell><mxCell id="Fjg6gQPjV4yVkcDUtzbh-5" value="weight" style="text;html=1;strokeColor=none;fillColor=none;align=center;verticalAlign=middle;whiteSpace=wrap;rounded=0;" parent="fhCK0Nvtap5ZFYeba8bG-1" vertex="1"><mxGeometry x="185" y="-6240" width="40" height="20" as="geometry"/></mxCell><mxCell id="Fjg6gQPjV4yVkcDUtzbh-6" value="" style="rounded=0;whiteSpace=wrap;html=1;fillColor=#fff2cc;strokeColor=#d6b656;" parent="fhCK0Nvtap5ZFYeba8bG-1" vertex="1"><mxGeometry x="265" y="-6240" width="60" height="20" as="geometry"/></mxCell><mxCell id="Fjg6gQPjV4yVkcDUtzbh-7" value="activity" style="text;html=1;strokeColor=none;fillColor=none;align=center;verticalAlign=middle;whiteSpace=wrap;rounded=0;" parent="fhCK0Nvtap5ZFYeba8bG-1" vertex="1"><mxGeometry x="185" y="-6200" width="40" height="20" as="geometry"/></mxCell><mxCell id="M2uDYoE4d-h9o5P3QzzX-0" value="" style="rounded=0;whiteSpace=wrap;html=1;fillColor=#dae8fc;strokeColor=#6c8ebf;" parent="fhCK0Nvtap5ZFYeba8bG-1" vertex="1"><mxGeometry x="265" y="-6200" width="60" height="20" as="geometry"/></mxCell><mxCell id="M2uDYoE4d-h9o5P3QzzX-2" value="daily calories" style="text;html=1;strokeColor=none;fillColor=none;align=center;verticalAlign=middle;whiteSpace=wrap;rounded=0;" parent="fhCK0Nvtap5ZFYeba8bG-1" vertex="1"><mxGeometry x="560" y="-6300" width="80" height="30" as="geometry"/></mxCell><mxCell id="M2uDYoE4d-h9o5P3QzzX-3" value="result" style="rounded=0;whiteSpace=wrap;html=1;" parent="fhCK0Nvtap5ZFYeba8bG-1" vertex="1"><mxGeometry x="570" y="-6270" width="70" height="30" as="geometry"/></mxCell><mxCell id="M2uDYoE4d-h9o5P3QzzX-4" value="&lt;font color=&quot;#000000&quot;&gt;submit&lt;/font&gt;" style="rounded=0;whiteSpace=wrap;html=1;fillColor=#e1d5e7;strokeColor=#9673a6;" parent="fhCK0Nvtap5ZFYeba8bG-1" vertex="1"><mxGeometry x="320" y="-6160" width="80" height="40" as="geometry"/></mxCell></root></mxGraphModel></diagram></mxfile>